<?xml version="1.0" encoding="UTF-8"?>
<svg width="318px" height="292px" viewBox="0 0 318 292" version="1.1" xmlns="http://www.w3.org/2000/svg" xmlns:xlink="http://www.w3.org/1999/xlink">
    <!-- Generator: Sketch 53.2 (72643) - https://sketchapp.com -->
    <title>Grid_Dots_MIssing</title>
    <desc>Created with Sketch.</desc>
    <g id="2019_0318" stroke="none" stroke-width="1" fill="none" fill-rule="evenodd">
        <g id="6.Kaggle_Homepage" transform="translate(-1122.000000, -699.000000)">
            <g id="Grid_Dots_MIssing" transform="translate(1120.000000, 696.000000)">
                <g id="Rectangle">
                    <rect fill-rule="nonzero" transform="translate(160.000000, 160.000000) rotate(-90.000000) translate(-160.000000, -160.000000) " x="0" y="0" width="320" height="320"></rect>
                    <rect fill="#DEDFE0" fill-rule="nonzero" transform="translate(212.984269, 292.742777) rotate(-90.000000) translate(-212.984269, -292.742777) " x="210.92273" y="290.681811" width="4.12307718" height="4.12193355" rx="1.74669864"></rect>
                    <rect fill="#DEDFE0" fill-rule="nonzero" transform="translate(160.773110, 266.629955) rotate(-90.000000) translate(-160.773110, -266.629955) " x="158.711572" y="264.568988" width="4.12307718" height="4.12193355" rx="1.74669864"></rect>
                    <rect fill="#DEDFE0" fill-rule="nonzero" transform="translate(212.984269, 266.629955) rotate(-90.000000) translate(-212.984269, -266.629955) " x="210.92273" y="264.568988" width="4.12307718" height="4.12193355" rx="1.74669864"></rect>
                    <rect fill="#DEDFE0" fill-rule="nonzero" transform="translate(108.561952, 266.629955) rotate(-90.000000) translate(-108.561952, -266.629955) " x="106.500413" y="264.568988" width="4.12307718" height="4.12193355" rx="1.74669864"></rect>
                    <rect fill="#DEDFE0" fill-rule="nonzero" transform="translate(160.773110, 240.517133) rotate(-90.000000) translate(-160.773110, -240.517133) " x="158.711572" y="238.456166" width="4.12307718" height="4.12193355" rx="1.74669864"></rect>
                    <rect fill="#DEDFE0" fill-rule="nonzero" transform="translate(56.350794, 240.517133) rotate(-90.000000) translate(-56.350794, -240.517133) " x="54.2892551" y="238.456166" width="4.12307718" height="4.12193355" rx="1.74669864"></rect>
                    <rect fill="#DEDFE0" fill-rule="nonzero" transform="translate(108.561952, 240.517133) rotate(-90.000000) translate(-108.561952, -240.517133) " x="106.500413" y="238.456166" width="4.12307718" height="4.12193355" rx="1.74669864"></rect>
                    <rect fill="#DEDFE0" fill-rule="nonzero" transform="translate(134.667531, 292.742777) rotate(-90.000000) translate(-134.667531, -292.742777) " x="132.605993" y="290.681811" width="4.12307718" height="4.12193355" rx="1.74669864"></rect>
                    <rect fill="#DEDFE0" fill-rule="nonzero" transform="translate(186.878690, 266.629955) rotate(-90.000000) translate(-186.878690, -266.629955) " x="184.817151" y="264.568988" width="4.12307718" height="4.12193355" rx="1.74669864"></rect>
                    <rect fill="#DEDFE0" fill-rule="nonzero" transform="translate(82.456373, 266.629955) rotate(-90.000000) translate(-82.456373, -266.629955) " x="80.3948343" y="264.568988" width="4.12307718" height="4.12193355" rx="1.74669864"></rect>
                    <rect fill="#DEDFE0" fill-rule="nonzero" transform="translate(134.667531, 266.629955) rotate(-90.000000) translate(-134.667531, -266.629955) " x="132.605993" y="264.568988" width="4.12307718" height="4.12193355" rx="1.74669864"></rect>
                    <rect fill="#DEDFE0" fill-rule="nonzero" transform="translate(186.878690, 240.517133) rotate(-90.000000) translate(-186.878690, -240.517133) " x="184.817151" y="238.456166" width="4.12307718" height="4.12193355" rx="1.74669864"></rect>
                    <rect fill="#DEDFE0" fill-rule="nonzero" transform="translate(160.773110, 214.404311) rotate(-90.000000) translate(-160.773110, -214.404311) " x="158.711572" y="212.343344" width="4.12307718" height="4.12193355" rx="1.74669864"></rect>
                    <rect fill="#DEDFE0" fill-rule="nonzero" transform="translate(56.350794, 214.404311) rotate(-90.000000) translate(-56.350794, -214.404311) " x="54.2892551" y="212.343344" width="4.12307718" height="4.12193355" rx="1.74669864"></rect>
                    <rect fill="#DEDFE0" fill-rule="nonzero" transform="translate(212.984269, 214.404311) rotate(-90.000000) translate(-212.984269, -214.404311) " x="210.92273" y="212.343344" width="4.12307718" height="4.12193355" rx="1.74669864"></rect>
                    <rect fill="#DEDFE0" fill-rule="nonzero" transform="translate(108.561952, 214.404311) rotate(-90.000000) translate(-108.561952, -214.404311) " x="106.500413" y="212.343344" width="4.12307718" height="4.12193355" rx="1.74669864"></rect>
                    <rect fill="#DEDFE0" fill-rule="nonzero" transform="translate(4.139635, 188.291489) rotate(-90.000000) translate(-4.139635, -188.291489) " x="2.07809682" y="186.230522" width="4.12307718" height="4.12193355" rx="1.74669864"></rect>
                    <rect fill="#DEDFE0" fill-rule="nonzero" transform="translate(160.773110, 188.291489) rotate(-90.000000) translate(-160.773110, -188.291489) " x="158.711572" y="186.230522" width="4.12307718" height="4.12193355" rx="1.74669864"></rect>
                    <rect fill="#DEDFE0" fill-rule="nonzero" transform="translate(56.350794, 188.291489) rotate(-90.000000) translate(-56.350794, -188.291489) " x="54.2892551" y="186.230522" width="4.12307718" height="4.12193355" rx="1.74669864"></rect>
                    <rect fill="#DEDFE0" fill-rule="nonzero" transform="translate(212.984269, 188.291489) rotate(-90.000000) translate(-212.984269, -188.291489) " x="210.92273" y="186.230522" width="4.12307718" height="4.12193355" rx="1.74669864"></rect>
                    <rect fill="#DEDFE0" fill-rule="nonzero" transform="translate(108.561952, 188.291489) rotate(-90.000000) translate(-108.561952, -188.291489) " x="106.500413" y="186.230522" width="4.12307718" height="4.12193355" rx="1.74669864"></rect>
                    <rect fill="#DEDFE0" fill-rule="nonzero" transform="translate(265.195427, 188.291489) rotate(-90.000000) translate(-265.195427, -188.291489) " x="263.133888" y="186.230522" width="4.12307718" height="4.12193355" rx="1.74669864"></rect>
                    <rect fill="#DEDFE0" fill-rule="nonzero" transform="translate(160.773110, 162.178667) rotate(-90.000000) translate(-160.773110, -162.178667) " x="158.711572" y="160.1177" width="4.12307718" height="4.12193355" rx="1.74669864"></rect>
                    <rect fill="#DEDFE0" fill-rule="nonzero" transform="translate(212.984269, 162.178667) rotate(-90.000000) translate(-212.984269, -162.178667) " x="210.92273" y="160.1177" width="4.12307718" height="4.12193355" rx="1.74669864"></rect>
                    <rect fill="#DEDFE0" fill-rule="nonzero" transform="translate(108.561952, 162.178667) rotate(-90.000000) translate(-108.561952, -162.178667) " x="106.500413" y="160.1177" width="4.12307718" height="4.12193355" rx="1.74669864"></rect>
                    <rect fill="#DEDFE0" fill-rule="nonzero" transform="translate(160.773110, 136.065845) rotate(-90.000000) translate(-160.773110, -136.065845) " x="158.711572" y="134.004878" width="4.12307718" height="4.12193355" rx="1.74669864"></rect>
                    <rect fill="#DEDFE0" fill-rule="nonzero" transform="translate(212.984269, 136.065845) rotate(-90.000000) translate(-212.984269, -136.065845) " x="210.92273" y="134.004878" width="4.12307718" height="4.12193355" rx="1.74669864"></rect>
                    <rect fill="#DEDFE0" fill-rule="nonzero" transform="translate(108.561952, 136.065845) rotate(-90.000000) translate(-108.561952, -136.065845) " x="106.500413" y="134.004878" width="4.12307718" height="4.12193355" rx="1.74669864"></rect>
                    <rect fill="#DEDFE0" fill-rule="nonzero" transform="translate(186.878690, 214.404311) rotate(-90.000000) translate(-186.878690, -214.404311) " x="184.817151" y="212.343344" width="4.12307718" height="4.12193355" rx="1.74669864"></rect>
                    <rect fill="#DEDFE0" fill-rule="nonzero" transform="translate(82.456373, 214.404311) rotate(-90.000000) translate(-82.456373, -214.404311) " x="80.3948343" y="212.343344" width="4.12307718" height="4.12193355" rx="1.74669864"></rect>
                    <rect fill="#DEDFE0" fill-rule="nonzero" transform="translate(186.878690, 188.291489) rotate(-90.000000) translate(-186.878690, -188.291489) " x="184.817151" y="186.230522" width="4.12307718" height="4.12193355" rx="1.74669864"></rect>
                    <rect fill="#DEDFE0" fill-rule="nonzero" transform="translate(82.456373, 188.291489) rotate(-90.000000) translate(-82.456373, -188.291489) " x="80.3948343" y="186.230522" width="4.12307718" height="4.12193355" rx="1.74669864"></rect>
                    <rect fill="#DEDFE0" fill-rule="nonzero" transform="translate(239.089848, 188.291489) rotate(-90.000000) translate(-239.089848, -188.291489) " x="237.028309" y="186.230522" width="4.12307718" height="4.12193355" rx="1.74669864"></rect>
                    <rect fill="#DEDFE0" fill-rule="nonzero" transform="translate(134.667531, 188.291489) rotate(-90.000000) translate(-134.667531, -188.291489) " x="132.605993" y="186.230522" width="4.12307718" height="4.12193355" rx="1.74669864"></rect>
                    <rect fill="#DEDFE0" fill-rule="nonzero" transform="translate(291.301006, 188.291489) rotate(-90.000000) translate(-291.301006, -188.291489) " x="289.239468" y="186.230522" width="4.12307718" height="4.12193355" rx="1.74669864"></rect>
                    <rect fill="#DEDFE0" fill-rule="nonzero" transform="translate(82.456373, 136.065845) rotate(-90.000000) translate(-82.456373, -136.065845) " x="80.3948343" y="134.004878" width="4.12307718" height="4.12193355" rx="1.74669864"></rect>
                    <rect fill="#DEDFE0" fill-rule="nonzero" transform="translate(239.089848, 136.065845) rotate(-90.000000) translate(-239.089848, -136.065845) " x="237.028309" y="134.004878" width="4.12307718" height="4.12193355" rx="1.74669864"></rect>
                    <rect fill="#DEDFE0" fill-rule="nonzero" transform="translate(134.667531, 136.065845) rotate(-90.000000) translate(-134.667531, -136.065845) " x="132.605993" y="134.004878" width="4.12307718" height="4.12193355" rx="1.74669864"></rect>
                    <rect fill="#DEDFE0" fill-rule="nonzero" transform="translate(212.984269, 109.953022) rotate(-90.000000) translate(-212.984269, -109.953022) " x="210.92273" y="107.892056" width="4.12307718" height="4.12193355" rx="1.74669864"></rect>
                    <rect fill="#DEDFE0" fill-rule="nonzero" transform="translate(265.195427, 109.953022) rotate(-90.000000) translate(-265.195427, -109.953022) " x="263.133888" y="107.892056" width="4.12307718" height="4.12193355" rx="1.74669864"></rect>
                    <rect fill="#DEDFE0" fill-rule="nonzero" transform="translate(186.878690, 109.953022) rotate(-90.000000) translate(-186.878690, -109.953022) " x="184.817151" y="107.892056" width="4.12307718" height="4.12193355" rx="1.74669864"></rect>
                    <rect fill="#DEDFE0" fill-rule="nonzero" transform="translate(82.456373, 109.953022) rotate(-90.000000) translate(-82.456373, -109.953022) " x="80.3948343" y="107.892056" width="4.12307718" height="4.12193355" rx="1.74669864"></rect>
                    <rect fill="#DEDFE0" fill-rule="nonzero" transform="translate(134.667531, 109.953022) rotate(-90.000000) translate(-134.667531, -109.953022) " x="132.605993" y="107.892056" width="4.12307718" height="4.12193355" rx="1.74669864"></rect>
                    <rect fill="#DEDFE0" fill-rule="nonzero" transform="translate(160.773110, 83.840200) rotate(-90.000000) translate(-160.773110, -83.840200) " x="158.711572" y="81.7792335" width="4.12307718" height="4.12193355" rx="1.74669864"></rect>
                    <rect fill="#DEDFE0" fill-rule="nonzero" transform="translate(108.561952, 83.840200) rotate(-90.000000) translate(-108.561952, -83.840200) " x="106.500413" y="81.7792335" width="4.12307718" height="4.12193355" rx="1.74669864"></rect>
                    <rect fill="#DEDFE0" fill-rule="nonzero" transform="translate(4.139635, 57.727378) rotate(-90.000000) translate(-4.139635, -57.727378) " x="2.07809682" y="55.6664114" width="4.12307718" height="4.12193355" rx="1.74669864"></rect>
                    <rect fill="#DEDFE0" fill-rule="nonzero" transform="translate(56.350794, 57.727378) rotate(-90.000000) translate(-56.350794, -57.727378) " x="54.2892551" y="55.6664114" width="4.12307718" height="4.12193355" rx="1.74669864"></rect>
                    <rect fill="#DEDFE0" fill-rule="nonzero" transform="translate(108.561952, 57.727378) rotate(-90.000000) translate(-108.561952, -57.727378) " x="106.500413" y="55.6664114" width="4.12307718" height="4.12193355" rx="1.74669864"></rect>
                    <rect fill="#DEDFE0" fill-rule="nonzero" transform="translate(265.195427, 57.727378) rotate(-90.000000) translate(-265.195427, -57.727378) " x="263.133888" y="55.6664114" width="4.12307718" height="4.12193355" rx="1.74669864"></rect>
                    <rect fill="#DEDFE0" fill-rule="nonzero" transform="translate(160.773110, 31.614556) rotate(-90.000000) translate(-160.773110, -31.614556) " x="158.711572" y="29.5535892" width="4.12307718" height="4.12193355" rx="1.74669864"></rect>
                    <rect fill="#DEDFE0" fill-rule="nonzero" transform="translate(160.773110, 5.501734) rotate(-90.000000) translate(-160.773110, -5.501734) " x="158.711572" y="3.44076711" width="4.12307718" height="4.12193355" rx="1.74669864"></rect>
                    <rect fill="#DEDFE0" fill-rule="nonzero" transform="translate(186.878690, 83.840200) rotate(-90.000000) translate(-186.878690, -83.840200) " x="184.817151" y="81.7792335" width="4.12307718" height="4.12193355" rx="1.74669864"></rect>
                    <rect fill="#DEDFE0" fill-rule="nonzero" transform="translate(82.456373, 83.840200) rotate(-90.000000) translate(-82.456373, -83.840200) " x="80.3948343" y="81.7792335" width="4.12307718" height="4.12193355" rx="1.74669864"></rect>
                    <rect fill="#DEDFE0" fill-rule="nonzero" transform="translate(239.089848, 83.840200) rotate(-90.000000) translate(-239.089848, -83.840200) " x="237.028309" y="81.7792335" width="4.12307718" height="4.12193355" rx="1.74669864"></rect>
                    <rect fill="#DEDFE0" fill-rule="nonzero" transform="translate(134.667531, 83.840200) rotate(-90.000000) translate(-134.667531, -83.840200) " x="132.605993" y="81.7792335" width="4.12307718" height="4.12193355" rx="1.74669864"></rect>
                    <rect fill="#DEDFE0" fill-rule="nonzero" transform="translate(291.301006, 83.840200) rotate(-90.000000) translate(-291.301006, -83.840200) " x="289.239468" y="81.7792335" width="4.12307718" height="4.12193355" rx="1.74669864"></rect>
                    <rect fill="#DEDFE0" fill-rule="nonzero" transform="translate(30.245215, 57.727378) rotate(-90.000000) translate(-30.245215, -57.727378) " x="28.183676" y="55.6664114" width="4.12307718" height="4.12193355" rx="1.74669864"></rect>
                    <rect fill="#DEDFE0" fill-rule="nonzero" transform="translate(186.878690, 57.727378) rotate(-90.000000) translate(-186.878690, -57.727378) " x="184.817151" y="55.6664114" width="4.12307718" height="4.12193355" rx="1.74669864"></rect>
                    <rect fill="#DEDFE0" fill-rule="nonzero" transform="translate(82.456373, 57.727378) rotate(-90.000000) translate(-82.456373, -57.727378) " x="80.3948343" y="55.6664114" width="4.12307718" height="4.12193355" rx="1.74669864"></rect>
                    <rect fill="#DEDFE0" fill-rule="nonzero" transform="translate(239.089848, 57.727378) rotate(-90.000000) translate(-239.089848, -57.727378) " x="237.028309" y="55.6664114" width="4.12307718" height="4.12193355" rx="1.74669864"></rect>
                    <rect fill="#DEDFE0" fill-rule="nonzero" transform="translate(134.667531, 57.727378) rotate(-90.000000) translate(-134.667531, -57.727378) " x="132.605993" y="55.6664114" width="4.12307718" height="4.12193355" rx="1.74669864"></rect>
                    <rect fill="#DEDFE0" fill-rule="nonzero" transform="translate(186.878690, 31.614556) rotate(-90.000000) translate(-186.878690, -31.614556) " x="184.817151" y="29.5535892" width="4.12307718" height="4.12193355" rx="1.74669864"></rect>
                    <rect fill="#DEDFE0" fill-rule="nonzero" transform="translate(30.245215, 5.501734) rotate(-90.000000) translate(-30.245215, -5.501734) " x="28.183676" y="3.44076711" width="4.12307718" height="4.12193355" rx="1.74669864"></rect>
                    <rect fill="#DEDFE0" fill-rule="nonzero" transform="translate(186.878690, 5.501734) rotate(-90.000000) translate(-186.878690, -5.501734) " x="184.817151" y="3.44076711" width="4.12307718" height="4.12193355" rx="1.74669864"></rect>
                    <rect fill="#DEDFE0" fill-rule="nonzero" transform="translate(134.667531, 5.501734) rotate(-90.000000) translate(-134.667531, -5.501734) " x="132.605993" y="3.44076711" width="4.12307718" height="4.12193355" rx="1.74669864"></rect>
                    <rect fill="#DEDFE0" fill-rule="nonzero" transform="translate(317.406585, 188.291489) rotate(-90.000000) translate(-317.406585, -188.291489) " x="315.345047" y="186.230522" width="4.12307718" height="4.12193355" rx="1.74669864"></rect>
                    <rect fill="#DEDFE0" fill-rule="nonzero" transform="translate(317.406585, 109.953022) rotate(-90.000000) translate(-317.406585, -109.953022) " x="315.345047" y="107.892056" width="4.12307718" height="4.12193355" rx="1.74669864"></rect>
                    <rect fill="#DEDFE0" fill-rule="nonzero" transform="translate(317.406585, 57.727378) rotate(-90.000000) translate(-317.406585, -57.727378) " x="315.345047" y="55.6664114" width="4.12307718" height="4.12193355" rx="1.74669864"></rect>
                </g>
            </g>
        </g>
    </g>
</svg>