<svg width="25" height="25" viewBox="0 0 25 25" fill="none" xmlns="http://www.w3.org/2000/svg">
<path fill-rule="evenodd" clip-rule="evenodd" d="M16.6667 16.5782V18.75C16.6667 21.0512 14.8012 22.9167 12.5 22.9167C10.1989 22.9167 8.33337 21.0512 8.33337 18.75V16.5782C8.33337 16.3748 8.26132 16.1528 8.09115 15.8607C7.98181 15.6729 7.83877 15.4667 7.62296 15.1812L7.55042 15.0866C7.40634 14.8988 7.09156 14.4885 6.97536 14.3316C5.79842 12.7419 5.20837 11.3228 5.20837 9.37504C5.20837 5.34796 8.47296 2.08337 12.5 2.08337C16.5271 2.08337 19.7917 5.34796 19.7917 9.37504C19.7917 11.3654 19.1936 12.8384 18.0267 14.425C17.903 14.5932 17.591 14.9987 17.4062 15.2389L17.4062 15.2389C17.3339 15.3328 17.281 15.4015 17.2666 15.4207C17.0308 15.7344 16.8843 15.9568 16.7891 16.15C16.7029 16.3247 16.6667 16.4598 16.6667 16.5782ZM14.6289 16.0827C14.682 15.7945 14.7808 15.5119 14.9207 15.2283C15.0851 14.895 15.2942 14.5774 15.6013 14.169C15.6223 14.1409 15.6902 14.0527 15.7778 13.9387L15.778 13.9386C15.9656 13.6947 16.2437 13.333 16.3484 13.1907C17.274 11.9321 17.7084 10.8625 17.7084 9.37506C17.7084 6.49858 15.3765 4.16673 12.5 4.16673C9.62356 4.16673 7.29171 6.49858 7.29171 9.37506C7.29171 10.811 7.71532 11.8299 8.64973 13.0919C8.75005 13.2275 9.03339 13.5969 9.18639 13.7964L9.18645 13.7964C9.23838 13.8641 9.27529 13.9123 9.28492 13.925C9.54665 14.2713 9.73182 14.5382 9.89137 14.8121C10.1399 15.2387 10.3048 15.6546 10.3763 16.0858C11.0254 16.4754 11.7271 16.6667 12.5 16.6667C13.275 16.6667 13.9783 16.4744 14.6289 16.0827ZM14.5834 18.7501V18.3984C13.9246 18.6323 13.2285 18.7501 12.5 18.7501C11.7716 18.7501 11.0755 18.6323 10.4167 18.3984V18.7501C10.4167 19.9007 11.3495 20.8334 12.5 20.8334C13.6506 20.8334 14.5834 19.9007 14.5834 18.7501Z" fill="black"/>
</svg>
