<?xml version="1.0" encoding="UTF-8"?>
<svg width="315px" height="314px" viewBox="0 0 315 314" version="1.1" xmlns="http://www.w3.org/2000/svg" xmlns:xlink="http://www.w3.org/1999/xlink">
    <!-- Generator: Sketch 53.2 (72643) - https://sketchapp.com -->
    <title>Organic_Dots</title>
    <desc>Created with Sketch.</desc>
    <g id="2019_0318" stroke="none" stroke-width="1" fill="none" fill-rule="evenodd">
        <g id="6.Kaggle_Homepage" transform="translate(-483.000000, -59.000000)">
            <g id="Organic_Dots" transform="translate(480.000000, 56.000000)">
                <g id="Rectangle">
                    <polygon fill-rule="nonzero" transform="translate(160.000000, 159.668322) rotate(-90.000000) translate(-160.000000, -159.668322) " points="0.49870253 -0.331678199 319.501818 -0.331678199 319.501818 319.668322 0.49870253 319.668322"></polygon>
                    <rect fill="#DEDFE0" fill-rule="nonzero" x="3.18458563" y="210.05294" width="4" height="3.98753894" rx="1.99376947"></rect>
                    <rect fill="#DEDFE0" fill-rule="nonzero" x="54.0858923" y="30.6298817" width="4" height="3.98753894" rx="1.99376947"></rect>
                    <rect fill="#DEDFE0" fill-rule="nonzero" x="80.0365456" y="22.4246733" width="4" height="3.98753894" rx="1.99376947"></rect>
                    <rect fill="#DEDFE0" fill-rule="nonzero" x="3.18458563" y="29.1259064" width="4" height="3.98753894" rx="1.99376947"></rect>
                    <rect fill="#DEDFE0" fill-rule="nonzero" x="54.1215129" y="42.8156157" width="4" height="3.98753894" rx="1.99376947"></rect>
                    <rect fill="#DEDFE0" fill-rule="nonzero" x="80.0365456" y="48.2713925" width="4" height="3.98753894" rx="1.99376947"></rect>
                    <rect fill="#DEDFE0" fill-rule="nonzero" x="105.987199" y="8.74932612" width="4" height="3.98753894" rx="1.99376947"></rect>
                    <rect fill="#DEDFE0" fill-rule="nonzero" x="105.987199" y="79.0424881" width="4" height="3.98753894" rx="1.99376947"></rect>
                    <rect fill="#DEDFE0" fill-rule="nonzero" x="106.02282" y="30.3713626" width="4" height="3.98753894" rx="1.99376947"></rect>
                    <rect fill="#DEDFE0" fill-rule="nonzero" x="105.987199" y="24.6139804" width="4" height="3.98753894" rx="1.99376947"></rect>
                    <rect fill="#DEDFE0" fill-rule="nonzero" x="131.937852" y="3.27918723" width="4" height="3.98753894" rx="1.99376947"></rect>
                    <rect fill="#DEDFE0" fill-rule="nonzero" x="131.937852" y="16.6816533" width="4" height="3.98753894" rx="1.99376947"></rect>
                    <path d="M133.931622,112.136203 L133.944083,112.136203 C135.045211,112.136203 135.937852,113.028844 135.937852,114.129972 L135.937852,114.129972 C135.937852,115.231101 135.045211,116.123742 133.944083,116.123742 L133.931622,116.123742 C132.830493,116.123742 131.937852,115.231101 131.937852,114.129972 L131.937852,114.129972 C131.937852,113.028844 132.830493,112.136203 133.931622,112.136203 Z" fill="#DEDFE0" fill-rule="nonzero"></path>
                    <rect fill="#DEDFE0" fill-rule="nonzero" x="157.888506" y="22.4246733" width="4" height="3.98753894" rx="1.99376947"></rect>
                    <rect fill="#DEDFE0" fill-rule="nonzero" x="157.888506" y="172.034849" width="4" height="3.98753894" rx="1.99376947"></rect>
                    <rect fill="#DEDFE0" fill-rule="nonzero" x="157.888506" y="54.9726255" width="4" height="3.98753894" rx="1.99376947"></rect>
                    <rect fill="#DEDFE0" fill-rule="nonzero" x="157.888506" y="106.666064" width="4" height="3.98753894" rx="1.99376947"></rect>
                    <rect fill="#DEDFE0" fill-rule="nonzero" x="183.839159" y="3.27918723" width="4" height="3.98753894" rx="1.99376947"></rect>
                    <rect fill="#DEDFE0" fill-rule="nonzero" x="183.839159" y="60.4427644" width="4" height="3.98753894" rx="1.99376947"></rect>
                    <rect fill="#DEDFE0" fill-rule="nonzero" x="183.839159" y="210.05294" width="4" height="3.98753894" rx="1.99376947"></rect>
                    <rect fill="#DEDFE0" fill-rule="nonzero" x="183.839159" y="248.071031" width="4" height="3.98753894" rx="1.99376947"></rect>
                    <rect fill="#DEDFE0" fill-rule="nonzero" x="105.987199" y="29.1259064" width="4" height="3.98753894" rx="1.99376947"></rect>
                    <rect fill="#DEDFE0" fill-rule="nonzero" x="105.987199" y="37.0582335" width="4" height="3.98753894" rx="1.99376947"></rect>
                    <rect fill="#DEDFE0" fill-rule="nonzero" x="105.987199" y="58.6659078" width="4" height="3.98753894" rx="1.99376947"></rect>
                    <rect fill="#DEDFE0" fill-rule="nonzero" x="105.987199" y="50.4606995" width="4" height="3.98753894" rx="1.99376947"></rect>
                    <rect fill="#DEDFE0" fill-rule="nonzero" x="131.937852" y="9.98042024" width="4" height="3.98753894" rx="1.99376947"></rect>
                    <rect fill="#DEDFE0" fill-rule="nonzero" x="131.937852" y="184.206221" width="4" height="3.98753894" rx="1.99376947"></rect>
                    <rect fill="#DEDFE0" fill-rule="nonzero" x="131.937852" y="37.0582335" width="4" height="3.98753894" rx="1.99376947"></rect>
                    <rect fill="#DEDFE0" fill-rule="nonzero" x="131.937852" y="235.899659" width="4" height="3.98753894" rx="1.99376947"></rect>
                    <rect fill="#DEDFE0" fill-rule="nonzero" x="131.937852" y="127.042644" width="4" height="3.98753894" rx="1.99376947"></rect>
                    <rect fill="#DEDFE0" fill-rule="nonzero" x="157.888506" y="29.1259064" width="4" height="3.98753894" rx="1.99376947"></rect>
                    <rect fill="#DEDFE0" fill-rule="nonzero" x="157.888506" y="184.206221" width="4" height="3.98753894" rx="1.99376947"></rect>
                    <rect fill="#DEDFE0" fill-rule="nonzero" x="157.888506" y="67.1439974" width="4" height="3.98753894" rx="1.99376947"></rect>
                    <rect fill="#DEDFE0" fill-rule="nonzero" x="183.839159" y="29.1259064" width="4" height="3.98753894" rx="1.99376947"></rect>
                    <rect fill="#DEDFE0" fill-rule="nonzero" x="183.839159" y="192.411429" width="4" height="3.98753894" rx="1.99376947"></rect>
                    <rect fill="#DEDFE0" fill-rule="nonzero" x="183.87478" y="80.8337068" width="4" height="3.98753894" rx="1.99376947"></rect>
                    <rect fill="#DEDFE0" fill-rule="nonzero" x="183.839159" y="132.512783" width="4" height="3.98753894" rx="1.99376947"></rect>
                    <rect fill="#DEDFE0" fill-rule="nonzero" x="209.789812" y="95.4529047" width="4" height="3.98753894" rx="1.99376947"></rect>
                    <rect fill="#DEDFE0" fill-rule="nonzero" x="209.789812" y="54.9726255" width="4" height="3.98753894" rx="1.99376947"></rect>
                    <rect fill="#DEDFE0" fill-rule="nonzero" x="209.789812" y="179.967176" width="4" height="3.98753894" rx="1.99376947"></rect>
                    <rect fill="#DEDFE0" fill-rule="nonzero" x="209.789812" y="87.5205776" width="4" height="3.98753894" rx="1.99376947"></rect>
                    <rect fill="#DEDFE0" fill-rule="nonzero" x="209.825433" y="250.820463" width="4" height="3.98753894" rx="1.99376947"></rect>
                    <rect fill="#DEDFE0" fill-rule="nonzero" x="209.789812" y="37.3311147" width="4" height="3.98753894" rx="1.99376947"></rect>
                    <rect fill="#DEDFE0" fill-rule="nonzero" x="209.789812" y="151.385388" width="4" height="3.98753894" rx="1.99376947"></rect>
                    <rect fill="#DEDFE0" fill-rule="nonzero" x="209.789812" y="80.8193446" width="4" height="3.98753894" rx="1.99376947"></rect>
                    <rect fill="#DEDFE0" fill-rule="nonzero" x="209.789812" y="235.899659" width="4" height="3.98753894" rx="1.99376947"></rect>
                    <rect fill="#DEDFE0" fill-rule="nonzero" x="209.789812" y="102.427019" width="4" height="3.98753894" rx="1.99376947"></rect>
                    <rect fill="#DEDFE0" fill-rule="nonzero" x="209.789812" y="287.593098" width="4" height="3.98753894" rx="1.99376947"></rect>
                    <rect fill="#DEDFE0" fill-rule="nonzero" x="235.740465" y="60.7156456" width="4" height="3.98753894" rx="1.99376947"></rect>
                    <rect fill="#DEDFE0" fill-rule="nonzero" x="235.740465" y="144.684155" width="4" height="3.98753894" rx="1.99376947"></rect>
                    <rect fill="#DEDFE0" fill-rule="nonzero" x="235.740465" y="112.409084" width="4" height="3.98753894" rx="1.99376947"></rect>
                    <rect fill="#DEDFE0" fill-rule="nonzero" x="235.740465" y="210.05294" width="4" height="3.98753894" rx="1.99376947"></rect>
                    <rect fill="#DEDFE0" fill-rule="nonzero" x="235.776086" y="150.441537" width="4" height="3.98753894" rx="1.99376947"></rect>
                    <rect fill="#DEDFE0" fill-rule="nonzero" x="235.740465" y="261.746378" width="4" height="3.98753894" rx="1.99376947"></rect>
                    <rect fill="#DEDFE0" fill-rule="nonzero" x="261.691119" y="16.9545345" width="4" height="3.98753894" rx="1.99376947"></rect>
                    <rect fill="#DEDFE0" fill-rule="nonzero" x="261.691119" y="36.1000206" width="4" height="3.98753894" rx="1.99376947"></rect>
                    <rect fill="#DEDFE0" fill-rule="nonzero" x="261.691119" y="169.29978" width="4" height="3.98753894" rx="1.99376947"></rect>
                    <rect fill="#DEDFE0" fill-rule="nonzero" x="261.691119" y="68.6479727" width="4" height="3.98753894" rx="1.99376947"></rect>
                    <rect fill="#DEDFE0" fill-rule="nonzero" x="261.726739" y="218.272511" width="4" height="3.98753894" rx="1.99376947"></rect>
                    <rect fill="#DEDFE0" fill-rule="nonzero" x="261.691119" y="82.0504387" width="4" height="3.98753894" rx="1.99376947"></rect>
                    <rect fill="#DEDFE0" fill-rule="nonzero" x="261.691119" y="261.746378" width="4" height="3.98753894" rx="1.99376947"></rect>
                    <rect fill="#DEDFE0" fill-rule="nonzero" x="287.641772" y="242.600892" width="4" height="3.98753894" rx="1.99376947"></rect>
                    <rect fill="#DEDFE0" fill-rule="nonzero" x="235.740465" y="86.5623647" width="4" height="3.98753894" rx="1.99376947"></rect>
                    <rect fill="#DEDFE0" fill-rule="nonzero" x="235.740465" y="184.206221" width="4" height="3.98753894" rx="1.99376947"></rect>
                    <rect fill="#DEDFE0" fill-rule="nonzero" x="235.740465" y="138.255803" width="4" height="3.98753894" rx="1.99376947"></rect>
                    <rect fill="#DEDFE0" fill-rule="nonzero" x="235.740465" y="249.575007" width="4" height="3.98753894" rx="1.99376947"></rect>
                    <rect fill="#DEDFE0" fill-rule="nonzero" x="235.740465" y="132.512783" width="4" height="3.98753894" rx="1.99376947"></rect>
                    <rect fill="#DEDFE0" fill-rule="nonzero" x="261.691119" y="184.206221" width="4" height="3.98753894" rx="1.99376947"></rect>
                    <rect fill="#DEDFE0" fill-rule="nonzero" x="261.691119" y="75.3492057" width="4" height="3.98753894" rx="1.99376947"></rect>
                    <rect fill="#DEDFE0" fill-rule="nonzero" x="261.691119" y="235.899659" width="4" height="3.98753894" rx="1.99376947"></rect>
                    <rect fill="#DEDFE0" fill-rule="nonzero" x="261.691119" y="132.512783" width="4" height="3.98753894" rx="1.99376947"></rect>
                    <rect fill="#DEDFE0" fill-rule="nonzero" x="261.691119" y="303.747929" width="4" height="3.98753894" rx="1.99376947"></rect>
                    <rect fill="#DEDFE0" fill-rule="nonzero" x="287.641772" y="224.959382" width="4" height="3.98753894" rx="1.99376947"></rect>
                    <rect fill="#DEDFE0" fill-rule="nonzero" x="287.641772" y="121.572505" width="4" height="3.98753894" rx="1.99376947"></rect>
                    <rect fill="#DEDFE0" fill-rule="nonzero" x="287.641772" y="287.593098" width="4" height="3.98753894" rx="1.99376947"></rect>
                    <rect fill="#DEDFE0" fill-rule="nonzero" x="313.592425" y="235.899659" width="4" height="3.98753894" rx="1.99376947"></rect>
                    <rect fill="#DEDFE0" fill-rule="nonzero" x="313.592425" y="132.512783" width="4" height="3.98753894" rx="1.99376947"></rect>
                    <rect fill="#DEDFE0" fill-rule="nonzero" x="157.888506" y="286.089122" width="4" height="3.98753894" rx="1.99376947"></rect>
                    <rect fill="#DEDFE0" fill-rule="nonzero" x="183.839159" y="312.442932" width="4" height="3.98753894" rx="1.99376947"></rect>
                    <rect fill="#DEDFE0" fill-rule="nonzero" x="261.691119" y="310.449162" width="4" height="3.98753894" rx="1.99376947"></rect>
                    <rect fill="#DEDFE0" fill-rule="nonzero" x="287.641772" y="294.294331" width="4" height="3.98753894" rx="1.99376947"></rect>
                    <rect fill="#DEDFE0" fill-rule="nonzero" x="313.592425" y="305.234608" width="4" height="3.98753894" rx="1.99376947"></rect>
                </g>
            </g>
        </g>
    </g>
</svg>