<svg width="24" height="24" viewBox="0 0 24 24" fill="none" xmlns="http://www.w3.org/2000/svg">
<path fill-rule="evenodd" clip-rule="evenodd" d="M19.8096 10.2573C20.7596 9.23566 21.1931 8.35078 20.9487 7.8266C20.7042 7.30219 19.7469 7.0655 18.3526 7.13683C19.0479 8.04363 19.5533 9.10358 19.8096 10.2573ZM16.4341 5.34024C15.1649 4.49355 13.6401 4 12 4C7.88082 4 4.48878 7.11318 4.04838 11.115C1.64816 13.1735 0.452538 15.3373 1.2365 17.0185C2.02038 18.6996 4.44605 19.1746 7.56535 18.6594C8.8346 19.5063 10.3596 20 12 20C16.1199 20 19.5124 16.8857 19.9518 12.8828C22.3505 10.8249 23.545 8.66202 22.7613 6.98136C21.9776 5.30061 19.5526 4.82545 16.4341 5.34024ZM8.05153 16.5178C6.79415 15.418 5.99999 13.8017 5.99999 12C5.99999 8.68627 8.68628 5.99998 12 5.99998C15.2732 5.99998 17.9342 8.62103 17.9988 11.8788C16.7275 12.8591 15.1124 13.8583 13.2668 14.7189C11.422 15.5791 9.61916 16.174 8.05153 16.5178ZM10.7415 17.8678C11.836 17.5119 12.9695 17.0643 14.112 16.5315C15.2553 15.9984 16.3274 15.4175 17.3041 14.8073C16.2968 16.7064 14.2995 18 12 18C11.5683 18 11.1473 17.9544 10.7415 17.8678ZM5.64719 16.863C4.25182 16.9346 3.29377 16.698 3.04912 16.1733C2.80454 15.6488 3.23871 14.7632 4.18991 13.7407C4.44607 14.8952 4.95164 15.9557 5.64719 16.863Z" fill="black"/>
</svg>
