<svg xmlns="http://www.w3.org/2000/svg" width="252" height="48" fill="none" viewBox="0 0 252 48">
    <g filter="url(#filter0_i)">
        <path fill="#fff" d="M0 0H252V48H0z"/>
        <path fill="#074EE8" d="M103.468 29.192l-1.392-3.04c-.352-.757-.795-1.296-1.328-1.616-.533-.32-1.216-.48-2.048-.48h-.24V29h-1.52V17.832c.576-.053 1.115-.09 1.616-.112.512-.032 1.067-.048 1.664-.048.683 0 1.28.075 1.792.224.512.139.939.341 1.28.608.341.267.597.581.768.944.181.363.272.763.272 1.2 0 .779-.235 1.408-.704 1.888-.459.47-1.125.821-2 1.056.213.096.411.208.592.336.181.117.352.267.512.448.16.17.315.379.464.624.16.245.32.544.48.896l1.216 2.624-1.424.672zm-3.248-10.24c-.363 0-.688.005-.976.016-.288.01-.55.027-.784.048v3.76h1.76c.768 0 1.392-.17 1.872-.512.48-.341.72-.832.72-1.472 0-.533-.224-.97-.672-1.312-.448-.352-1.088-.528-1.92-.528zm7.347 6.48c.096.779.368 1.387.816 1.824.448.437 1.04.656 1.776.656.48 0 .912-.048 1.296-.144.384-.107.752-.24 1.104-.4l.336 1.232c-.384.181-.816.325-1.296.432-.48.107-1.019.16-1.616.16-.597 0-1.136-.096-1.616-.288-.48-.203-.891-.485-1.232-.848-.331-.373-.587-.827-.768-1.36-.181-.544-.272-1.163-.272-1.856 0-.619.091-1.195.272-1.728.181-.533.437-.992.768-1.376.331-.395.725-.699 1.184-.912.459-.224.971-.336 1.536-.336.597 0 1.12.101 1.568.304.448.203.821.48 1.12.832.299.352.523.763.672 1.232.149.47.224.965.224 1.488 0 .373-.016.736-.048 1.088h-5.824zm2.256-3.696c-.629 0-1.147.213-1.552.64-.395.427-.635 1.056-.72 1.888h4.56c0-.81-.203-1.435-.608-1.872-.405-.437-.965-.656-1.68-.656zm8.831-1.248c.48 0 .907.08 1.28.24.384.16.715.357.992.592v-.64h1.312v8.128c0 .693-.091 1.285-.272 1.776-.181.49-.443.89-.784 1.2-.331.32-.731.555-1.2.704-.469.15-.992.224-1.568.224-.501 0-.981-.059-1.44-.176-.459-.117-.869-.293-1.232-.528l.528-1.248c.256.203.555.368.896.496.341.139.757.208 1.248.208.757 0 1.349-.197 1.776-.592.437-.395.656-1.035.656-1.92v-1.024c-.213.256-.523.501-.928.736-.395.224-.869.336-1.424.336-.469 0-.928-.09-1.376-.272-.448-.192-.843-.464-1.184-.816-.341-.363-.619-.8-.832-1.312-.203-.523-.304-1.12-.304-1.792 0-.619.101-1.19.304-1.712.203-.533.475-.992.816-1.376.352-.384.763-.683 1.232-.896.469-.224.971-.336 1.504-.336zm.16 7.232c.427 0 .811-.096 1.152-.288.341-.192.619-.416.832-.672v-4.352c-.245-.17-.528-.325-.848-.464-.32-.139-.704-.208-1.152-.208-.331 0-.651.07-.96.208-.299.128-.565.32-.8.576-.235.256-.421.57-.56.944-.139.363-.208.784-.208 1.264 0 .459.069.875.208 1.248.139.363.325.677.56.944.235.256.501.453.8.592.309.139.635.208.976.208zm7.344 1.28h-1.44v-8.32h1.44V29zm-.72-9.744c-.278 0-.518-.096-.72-.288-.192-.203-.288-.443-.288-.72 0-.31.09-.555.272-.736.181-.181.426-.272.736-.272.277 0 .512.101.704.304.202.192.304.427.304.704 0 .31-.091.555-.272.736-.182.181-.427.272-.736.272zm3.168 7.872c.277.245.624.443 1.04.592.426.15.88.224 1.36.224.597 0 1.045-.096 1.344-.288.309-.203.464-.459.464-.768 0-.16-.032-.31-.096-.448-.054-.139-.16-.272-.32-.4-.15-.128-.358-.25-.624-.368-.267-.128-.614-.267-1.04-.416-.79-.267-1.377-.581-1.76-.944-.384-.373-.576-.885-.576-1.536 0-.32.069-.619.208-.896.149-.277.357-.517.624-.72.277-.213.608-.379.992-.496.394-.117.842-.176 1.344-.176.544 0 1.018.059 1.424.176.416.107.789.245 1.12.416l-.4 1.184c-.288-.17-.619-.31-.992-.416-.363-.107-.768-.16-1.216-.16-.555 0-.976.112-1.264.336-.288.224-.432.47-.432.736 0 .128.021.245.064.352.053.107.144.208.272.304.128.096.298.192.512.288.213.096.48.197.8.304.522.181.965.368 1.328.56.362.181.656.384.88.608.224.224.384.47.48.736.096.256.144.544.144.864 0 .373-.08.71-.24 1.008-.16.299-.384.555-.672.768-.288.203-.64.357-1.056.464-.406.117-.859.176-1.36.176-.64 0-1.211-.08-1.712-.24-.502-.16-.918-.368-1.248-.624l.608-1.2zm8.252-8.768h1.104v2.624h2.304v1.248h-2.304v4.016c0 .31.032.57.096.784.075.213.171.384.288.512.117.128.256.224.416.288.171.053.347.08.528.08.267 0 .517-.043.752-.128s.459-.187.672-.304l.4 1.152c-.213.128-.501.25-.864.368-.363.128-.741.192-1.136.192-.8 0-1.435-.261-1.904-.784-.459-.523-.688-1.28-.688-2.272v-3.904h-1.44v-1.248h1.472l.304-2.624zm6.303 7.072c.096.779.368 1.387.816 1.824.448.437 1.04.656 1.776.656.48 0 .912-.048 1.296-.144.384-.107.752-.24 1.104-.4l.336 1.232c-.384.181-.816.325-1.296.432-.48.107-1.019.16-1.616.16-.598 0-1.136-.096-1.616-.288-.48-.203-.891-.485-1.232-.848-.331-.373-.587-.827-.768-1.36-.182-.544-.272-1.163-.272-1.856 0-.619.09-1.195.272-1.728.181-.533.437-.992.768-1.376.33-.395.725-.699 1.184-.912.458-.224.97-.336 1.536-.336.597 0 1.12.101 1.568.304.448.203.821.48 1.12.832.298.352.522.763.672 1.232.149.47.224.965.224 1.488 0 .373-.016.736-.048 1.088h-5.824zm2.256-3.696c-.63 0-1.147.213-1.552.64-.395.427-.635 1.056-.72 1.888h4.56c0-.81-.203-1.435-.608-1.872-.406-.437-.966-.656-1.68-.656zm10.047.336c-.203-.085-.443-.128-.72-.128-.299 0-.592.064-.88.192-.277.128-.528.32-.752.576-.213.256-.389.587-.528.992-.128.395-.192.864-.192 1.408V29h-1.44v-8.32h1.392v1.808c.096-.256.224-.507.384-.752s.347-.459.56-.64c.224-.181.48-.325.768-.432.288-.117.608-.176.96-.176.16 0 .315.01.464.032.16.01.299.032.416.064l-.432 1.488z"/>
    </g>
    <defs>
        <filter id="filter0_i" width="252" height="48" x="0" y="0" color-interpolation-filters="sRGB" filterUnits="userSpaceOnUse">
            <feFlood flood-opacity="0" result="BackgroundImageFix"/>
            <feBlend in="SourceGraphic" in2="BackgroundImageFix" result="shape"/>
            <feColorMatrix in="SourceAlpha" result="hardAlpha" values="0 0 0 0 0 0 0 0 0 0 0 0 0 0 0 0 0 0 127 0"/>
            <feOffset dy="-3"/>
            <feComposite in2="hardAlpha" k2="-1" k3="1" operator="arithmetic"/>
            <feColorMatrix values="0 0 0 0 0.027451 0 0 0 0 0.305882 0 0 0 0 0.909804 0 0 0 1 0"/>
            <feBlend in2="shape" result="effect1_innerShadow"/>
        </filter>
    </defs>
</svg>
