<svg xmlns="http://www.w3.org/2000/svg" width="252" height="48" fill="none" viewBox="0 0 252 48">
    <g filter="url(#filter0_i)">
        <path fill="#fff" d="M0 0H252V48H0z"/>
        <path fill="#074EE8" d="M113.596 29h-6.656V17.8h1.52v9.84h5.136V29zm7.532-4.16c0-.416-.069-.81-.208-1.184-.128-.373-.315-.699-.56-.976-.235-.277-.517-.496-.848-.656-.32-.17-.672-.256-1.056-.256-.843 0-1.499.277-1.968.832-.469.555-.704 1.29-.704 2.208 0 .416.064.816.192 1.2.139.373.325.704.56.992.245.277.528.501.848.672.331.16.688.24 1.072.24.416 0 .789-.075 1.12-.224.331-.15.608-.357.832-.624.235-.277.411-.603.528-.976.128-.373.192-.79.192-1.248zm-6.816 0c0-.672.107-1.275.32-1.808.213-.544.501-1.003.864-1.376.373-.373.811-.661 1.312-.864.512-.203 1.061-.304 1.648-.304.576 0 1.115.101 1.616.304.512.203.955.49 1.328.864.373.373.667.827.88 1.36.213.533.32 1.13.32 1.792 0 .661-.107 1.264-.32 1.808-.203.533-.491.992-.864 1.376-.373.384-.816.683-1.328.896-.501.203-1.045.304-1.632.304-.597 0-1.152-.107-1.664-.32-.501-.213-.939-.512-1.312-.896-.363-.384-.651-.843-.864-1.376-.203-.533-.304-1.12-.304-1.76zm13.498-4.352c.48 0 .907.08 1.28.24.384.16.715.357.992.592v-.64h1.312v8.128c0 .693-.09 1.285-.272 1.776-.181.49-.442.89-.784 1.2-.33.32-.73.555-1.2.704-.469.15-.992.224-1.568.224-.501 0-.981-.059-1.44-.176-.458-.117-.869-.293-1.232-.528l.528-1.248c.256.203.555.368.896.496.342.139.758.208 1.248.208.758 0 1.35-.197 1.776-.592.438-.395.656-1.035.656-1.92v-1.024c-.213.256-.522.501-.928.736-.394.224-.869.336-1.424.336-.469 0-.928-.09-1.376-.272-.448-.192-.842-.464-1.184-.816-.341-.363-.618-.8-.832-1.312-.202-.523-.304-1.12-.304-1.792 0-.619.102-1.19.304-1.712.203-.533.475-.992.816-1.376.352-.384.763-.683 1.232-.896.47-.224.971-.336 1.504-.336zm.16 7.232c.427 0 .811-.096 1.152-.288.342-.192.619-.416.832-.672v-4.352c-.245-.17-.528-.325-.848-.464-.32-.139-.704-.208-1.152-.208-.33 0-.65.07-.96.208-.298.128-.565.32-.8.576-.234.256-.421.57-.56.944-.138.363-.208.784-.208 1.264 0 .459.07.875.208 1.248.139.363.326.677.56.944.235.256.502.453.8.592.31.139.635.208.976.208zm7.344 1.28h-1.44v-8.32h1.44V29zm-.72-9.744c-.278 0-.518-.096-.72-.288-.192-.203-.288-.443-.288-.72 0-.31.09-.555.272-.736.181-.181.426-.272.736-.272.277 0 .512.101.704.304.202.192.304.427.304.704 0 .31-.091.555-.272.736-.182.181-.427.272-.736.272zm4.672 2.816c.298-.448.677-.821 1.136-1.12.469-.31 1.024-.464 1.664-.464.938 0 1.637.283 2.096.848.469.565.704 1.312.704 2.24V29h-1.44v-5.264c0-.608-.139-1.088-.416-1.44-.278-.363-.672-.544-1.184-.544-.246 0-.486.048-.72.144-.235.085-.464.208-.688.368-.214.16-.416.347-.608.56-.182.213-.347.437-.496.672V29h-1.44v-8.32h1.392v1.392z"/>
    </g>
    <defs>
        <filter id="filter0_i" width="252" height="48" x="0" y="0" color-interpolation-filters="sRGB" filterUnits="userSpaceOnUse">
            <feFlood flood-opacity="0" result="BackgroundImageFix"/>
            <feBlend in="SourceGraphic" in2="BackgroundImageFix" result="shape"/>
            <feColorMatrix in="SourceAlpha" result="hardAlpha" values="0 0 0 0 0 0 0 0 0 0 0 0 0 0 0 0 0 0 127 0"/>
            <feOffset dy="-3"/>
            <feComposite in2="hardAlpha" k2="-1" k3="1" operator="arithmetic"/>
            <feColorMatrix values="0 0 0 0 0.027451 0 0 0 0 0.305882 0 0 0 0 0.909804 0 0 0 1 0"/>
            <feBlend in2="shape" result="effect1_innerShadow"/>
        </filter>
    </defs>
</svg>
